PathFileType	4	(X/Y/Z)	Patient5_TMGait_0pt45_1_left_05.trc.trc
DataRate	CameraRate	NumFrames	NumMarkers	Units	OrigDataRate	OrigDataStartFrame	OrigNumFrames
57.851239669421	57.851239669421	5	32	mm	57.851239669421	124	       141
Frame#	Time	R.ASIS			L.ASIS			Chest			R.Shoulder			Neck			L.Shoulder			L.Elbow			L.Wrist			R.Elbow			R.Wrist			L.Thigh.Superior			L.Thigh.Lateral			L.Thigh.Inferior			L.Patella			L.Shank.Superior			L.Shank.Lateral			L.Shank.Inferior			L.Heel			L.Midfoot.Lateral			L.Midfoot.Superior			L.Toe			R.Thigh.Superior			R.Thigh.Lateral			R.Thigh.Inferior			R.Patella			R.Shank.Superior			R.Shank.Lateral			R.Shank.Inferior			R.Heel			R.Midfoot.Lateral			R.Midfoot.Superior			R.Toe			
		X1	Y1	Z1	X2	Y2	Z2	X3	Y3	Z3	X4	Y4	Z4	X5	Y5	Z5	X6	Y6	Z6	X7	Y7	Z7	X8	Y8	Z8	X9	Y9	Z9	X10	Y10	Z10	X11	Y11	Z11	X12	Y12	Z12	X13	Y13	Z13	X14	Y14	Z14	X15	Y15	Z15	X16	Y16	Z16	X17	Y17	Z17	X18	Y18	Z18	X19	Y19	Z19	X20	Y20	Z20	X21	Y21	Z21	X22	Y22	Z22	X23	Y23	Z23	X24	Y24	Z24	X25	Y25	Z25	X26	Y26	Z26	X27	Y27	Z27	X28	Y28	Z28	X29	Y29	Z29	X30	Y30	Z30	X31	Y31	Z31	X32	Y32	Z32	

124	8.926142857143	967.157964978234	956.599479985932	591.672442552789	951.300540443607	950.197392191212	351.124204873074	1041.409715761150	1416.778311940168	481.586561164153	968.067440204044	1473.359749484202	661.495414710918	916.905653164040	1542.962292287739	485.646716112724	953.384166240880	1496.130998940335	297.364474138636	819.823165087921	1195.068752132470	175.824832245817	903.748139121174	921.105898544503	141.759149734325	926.492506741366	1151.724745306328	810.825445981494	1134.458414181391	970.273146823107	721.713901910300	1009.914769459283	753.419137982043	325.768964347113	961.157741228747	666.322245409458	287.512085184573	1056.191118494090	636.983260758365	345.127706373833	1101.975591592807	528.217998891096	345.007176518518	1085.291486737367	419.850244287630	371.629548190570	1025.254869841302	334.790106460884	304.502401368914	1088.996453724294	293.220396226760	382.847888013131	1018.884011691364	46.198114516979	392.684664155868	1104.015706597228	30.386425775683	325.355053451428	1195.179372820235	104.740721817557	357.211657608200	1304.383425318456	77.977592815027	352.466316171788	942.028167598375	721.075286920792	595.383685034195	840.794751133876	656.465633940121	644.330188802225	906.167612398646	594.126416969151	565.677489416462	888.308475545656	498.543640746790	587.394718610005	832.355629117563	412.341881757839	545.299573825450	754.468650259818	349.707604099954	623.795680820860	799.977453271743	277.084717466308	537.167107296045	654.044048833544	54.694494073418	492.210152530597	732.333776667939	25.324800690485	565.144693517756	838.084973936140	87.922051687342	542.088388653496	941.976084939796	43.603357678301	541.402886565862	
125	8.943428571429	968.355500622896	956.539998123561	591.639671500428	956.908981682663	949.431742674217	350.734926795190	1043.068759423708	1416.868201633139	479.871113469069	966.225913623460	1473.783398992454	658.256756314383	918.307771497257	1542.504807112046	481.416180483225	957.565361931633	1494.882898165522	293.827156867252	826.693128923432	1193.085340105987	171.319948659101	910.702910293651	918.923283421161	139.107217259842	922.417441178092	1151.703728789679	806.748122053884	1131.413994700477	969.812009718044	720.840522296853	1015.717423294904	751.431391016410	328.701586860829	966.586178240418	664.568596401004	290.148998102317	1059.502072365616	634.239460405057	350.636296119092	1103.034956419856	525.834595164079	352.958497706370	1085.054244224724	417.029487050406	377.509321245303	1027.602258849714	332.855853391103	307.604705295596	1087.688189722069	290.415428077777	387.419791690920	1015.155647442094	46.725452247236	393.632215331759	1101.064650098691	29.573170865695	327.688353490108	1193.523240608702	100.500521087770	363.260902834779	1302.246938310744	70.577156834930	360.241398753715	943.048565492566	720.600717542466	595.361303917778	841.065854956626	656.456909996208	643.329650434651	906.870774482541	593.534795440444	565.474604709236	887.783928420346	497.728676338450	587.182015356130	830.762323006785	411.513138409504	545.015526527190	751.210796113509	350.432893798700	623.068892819297	795.958354471962	276.843574231427	536.997834423870	646.433490697238	55.624553136312	492.381574377430	724.697920584597	25.585366535489	565.094206605566	830.647616947390	88.005064185712	542.356952188730	934.281567938590	43.414380631885	541.411650687130	
126	8.960714285714	969.712994775023	956.799795889299	591.301140656875	962.442654662281	949.198949262303	350.136058542045	1044.906967571530	1417.423951371061	477.983493000004	964.461085435224	1474.709044236825	654.858423359667	919.898031900742	1542.468059991525	476.974412190727	961.881993767322	1493.966712418920	290.147219066917	833.985716242533	1191.304289134917	166.803856333424	918.231126314597	917.040693411319	136.204448042343	917.582902631438	1152.189106089681	802.195768438808	1127.780693535149	969.902349520127	720.090558457385	1022.173702552677	750.884811034447	331.772682589718	973.344584489121	664.301810696728	292.158768122483	1063.801243319498	632.963220331070	355.762121133399	1105.073087177809	524.159687634692	360.046666513244	1084.891667412426	414.810568049878	382.380277978351	1029.938318415362	331.986602342938	309.274160837679	1085.282827911526	288.151517779454	390.924439159913	1008.441913601072	47.658971227265	394.018658243717	1094.928658064813	28.982860120997	329.231487604484	1188.876216562801	96.648737350718	367.939123971841	1297.072213927500	63.345307444877	366.403096484669	944.382732969466	720.394550544616	595.161082507021	841.708850481417	656.665603871214	642.217439727099	907.989562747945	593.180312935448	565.193448931488	887.771070442527	497.138640234435	586.959717258332	829.634223093247	410.842404141090	544.759832069058	748.331807455524	351.425167091253	622.314218470529	792.222406284327	276.822528600495	536.854167995597	638.961569026327	57.073292045443	492.581645953944	717.109179218856	26.080008134073	565.051462834771	823.392272086719	88.118903017910	542.719795499967	926.633933136322	43.183943071560	541.451801400396	
127	8.978000000000	971.183076921453	957.422408248538	590.618499568842	967.780623845650	949.532306119755	349.250693452838	1046.966490279880	1418.428124874187	475.940682575735	962.998252305385	1476.160097688552	651.358940026728	921.739100698399	1542.908516467008	472.407264890010	966.374988370252	1493.457475186530	286.394865403849	841.661758581040	1189.851357169715	162.350720629508	926.309624871325	915.587551322638	133.096969129609	912.100514022065	1153.258081304067	797.190527252479	1123.554886542107	970.508786670553	719.473238339991	1028.854560373873	751.564853121738	334.566177886033	980.770903116170	665.271294875722	293.405206399868	1068.644794197329	632.911197578216	360.033258524519	1107.688592781134	523.133570756712	365.797776840010	1084.809937637466	413.238656614008	386.003777808189	1032.132863659800	331.964293445942	309.624861268610	1082.252532119109	286.496907681198	393.250881573628	1000.123475039676	48.599819321830	393.916420742559	1087.008613259744	28.535433304914	329.979262311422	1182.323571407829	93.575416445662	371.011565042297	1290.060412231307	57.193561845466	370.626505643855	945.877122470227	720.541500247524	594.709636165969	842.560504723429	657.190108666466	640.989069047868	909.373191058026	593.156090987248	564.840544804020	888.180712133455	496.853896584774	586.762712446329	828.855933176208	410.412389276320	544.530356681762	745.746299873478	352.753947642032	621.536333430621	788.735128141688	277.100066665623	536.753625280477	631.674886520110	59.166589860347	492.784122888836	709.575085276504	26.904476627769	565.008819226788	816.359938436185	88.277647116853	543.178445427398	919.033272254049	42.918102615506	541.527590021323	
128	8.995285714286	972.736742617066	958.425724309844	589.566752161553	972.879786573731	950.394743845406	348.006522971398	1049.250459782714	1419.825532619635	473.781054500435	961.990760493548	1478.102027463680	647.815215598861	923.846402570928	1543.828948575402	467.806168335980	971.058853442134	1493.394669677134	282.645252684115	849.641691353324	1188.825688382109	158.003590932346	934.905240800698	914.670069493435	129.845896774002	906.154926825115	1154.942283657584	791.835371320136	1118.779600506671	971.553066950109	718.958473724737	1035.326099852619	753.047774555036	336.641687880953	988.073606630624	667.016377799839	293.861782143512	1073.502264267870	633.653881316868	363.102127494065	1110.386124643716	522.575891180649	369.972422738986	1084.692343776146	412.226129712656	388.362639405179	1033.876645337019	332.471797597288	309.029905558531	1078.897329426283	285.411630353922	394.518046965565	991.243455981455	49.313276216669	393.486270902699	1078.376603677269	28.206347741704	330.071743242935	1174.752458568182	91.443979790192	372.600336654230	1282.169587783563	52.588577481648	372.985989988412	947.436445086197	721.109735313117	593.970656274554	843.528453689107	658.094973936770	639.654573274900	910.968915012776	593.527500276234	564.459412848983	889.006204314094	496.917517321279	586.658309312784	828.378464889280	410.264883867929	544.339562818246	743.435126427712	354.457739584755	620.761525975406	785.517576021747	277.718501814491	536.722897087533	624.622130150183	62.007530161473	492.970201090711	702.110896192644	28.146064528672	564.960694051348	809.594219801624	88.487895438324	543.733500431205	911.478892239169	42.629626941349	541.638104224446	
